<svg version="1.2" xmlns="http://www.w3.org/2000/svg" viewBox="0 0 400 400" width="400" height="400">
	<style>
		.s0 { fill: #ffffff } 
	</style>
	<path id="SOCIAL" fill-rule="evenodd" class="s0" d="m273.71 200c0 17.04-0.93 33.47-2.54 49.14h-142.34c-1.69-15.67-2.54-32.1-2.54-49.14 0-17.04 0.92-33.48 2.54-49.14h142.34c1.69 15.66 2.54 32.1 2.54 49.14zm22.11-49.14h94.51c4.07 15.74 6.22 32.17 6.22 49.14 0 16.97-2.15 33.4-6.22 49.14h-94.51c1.61-15.82 2.45-32.25 2.45-49.14 0-16.89-0.84-33.32-2.45-49.14zm86.45-24.57h-89.6c-7.68-49.06-22.88-90.13-42.46-116.39 60.12 15.89 109.03 59.5 132.06 116.39zm-114.48 0h-135.58c4.68-27.94 11.9-52.67 20.73-72.7 8.06-18.12 17.04-31.25 25.72-39.54 8.59-8.14 15.74-10.6 21.34-10.6 5.6 0 12.74 2.46 21.34 10.6 8.68 8.29 17.66 21.42 25.72 39.54 8.91 19.96 16.05 44.68 20.73 72.7zm-160.46 0h-89.6c23.03-56.89 71.86-100.5 132.06-116.39-19.58 26.26-34.78 67.33-42.46 116.39zm-97.66 24.57h94.51c-1.61 15.82-2.46 32.25-2.46 49.14 0 16.89 0.85 33.32 2.46 49.14h-94.51c-4.07-15.74-6.22-32.17-6.22-49.14 0-16.97 2.15-33.4 6.22-49.14zm143.27 195.48c-8.91-19.96-16.05-44.69-20.73-72.63h135.58c-4.68 27.94-11.9 52.67-20.73 72.63-8.06 18.12-17.04 31.25-25.72 39.54-8.6 8.21-15.74 10.67-21.34 10.67-5.6 0-12.75-2.46-21.34-10.6-8.68-8.29-17.66-21.42-25.72-39.61zm-45.61-72.63c7.68 49.06 22.88 90.13 42.46 116.39-60.2-15.89-109.03-59.5-132.06-116.39zm274.94 0c-23.03 56.89-71.86 100.5-131.98 116.39 19.58-26.26 34.7-67.33 42.46-116.39z"/>
</svg>